<svg id="Group_174455" data-name="Group 174455" xmlns="http://www.w3.org/2000/svg" width="135" height="40" viewBox="0 0 135 40">
  <g id="Group_174444" data-name="Group 174444" transform="translate(0)">
    <rect id="Rectangle_168584" data-name="Rectangle 168584" width="135" height="40" rx="5"/>
  </g>
  <g id="Group_174447" data-name="Group 174447" transform="translate(0 0)">
    <g id="Group_174446" data-name="Group 174446">
      <g id="Group_174445" data-name="Group 174445">
        <path id="Path_150575" data-name="Path 150575" d="M140,10.8a4.2,4.2,0,0,1,4.2,4.2V45a4.2,4.2,0,0,1-4.2,4.2H15A4.2,4.2,0,0,1,10.8,45V15A4.2,4.2,0,0,1,15,10.8H140m0-.8H15a5.015,5.015,0,0,0-5,5V45a5.015,5.015,0,0,0,5,5H140a5.015,5.015,0,0,0,5-5V15a5.015,5.015,0,0,0-5-5Z" transform="translate(-10 -10)" fill="#a6a6a6"/>
      </g>
    </g>
  </g>
  <g id="Group_174448" data-name="Group 174448" transform="translate(41.541 6.96)">
    <path id="Path_150576" data-name="Path 150576" d="M56.131,22.219a1.809,1.809,0,0,1-.844.648,3.422,3.422,0,0,1-1.262.215,2.45,2.45,0,0,1-1.294-.342,2.278,2.278,0,0,1-.873-.971,3.352,3.352,0,0,1-.317-1.461v-.52a3.139,3.139,0,0,1,.627-2.087,2.193,2.193,0,0,1,1.766-.741,2.255,2.255,0,0,1,1.5.478,2.071,2.071,0,0,1,.695,1.352h-.785A1.3,1.3,0,0,0,53.939,17.6a1.39,1.39,0,0,0-1.2.555,2.7,2.7,0,0,0-.411,1.607v.487a2.54,2.54,0,0,0,.458,1.6,1.485,1.485,0,0,0,1.24.591,2.753,2.753,0,0,0,.773-.1,1.2,1.2,0,0,0,.548-.331V20.676H53.971v-.643h2.16Z" transform="translate(-51.541 -16.96)" fill="#fff" stroke="#fff" stroke-width="0.2"/>
    <path id="Path_150577" data-name="Path 150577" d="M60.976,20.246H58.4v2.111h3V23H57.609V17.042h3.744v.643H58.4V19.6h2.581Z" transform="translate(-51.541 -16.96)" fill="#fff" stroke="#fff" stroke-width="0.2"/>
    <path id="Path_150578" data-name="Path 150578" d="M66.737,17.685H64.822V23h-.781V17.685H62.129v-.643h4.608Z" transform="translate(-51.541 -16.96)" fill="#fff" stroke="#fff" stroke-width="0.2"/>
    <path id="Path_150579" data-name="Path 150579" d="M70.709,23h-.785V17.042h.785Z" transform="translate(-51.541 -16.96)" fill="#fff" stroke="#fff" stroke-width="0.2"/>
    <path id="Path_150580" data-name="Path 150580" d="M76.43,17.685H74.515V23h-.781V17.685H71.823v-.643H76.43Z" transform="translate(-51.541 -16.96)" fill="#fff" stroke="#fff" stroke-width="0.2"/>
    <path id="Path_150581" data-name="Path 150581" d="M84.143,20.213a3.694,3.694,0,0,1-.295,1.529,2.235,2.235,0,0,1-.835,1,2.3,2.3,0,0,1-1.26.344A2.224,2.224,0,0,1,79.66,21.75a3.52,3.52,0,0,1-.309-1.483v-.43a3.642,3.642,0,0,1,.3-1.518,2.283,2.283,0,0,1,.846-1.008,2.257,2.257,0,0,1,1.25-.351,2.313,2.313,0,0,1,1.262.346,2.236,2.236,0,0,1,.841,1,3.709,3.709,0,0,1,.295,1.528Zm-.782-.384a2.677,2.677,0,0,0-.425-1.627,1.4,1.4,0,0,0-1.191-.566,1.388,1.388,0,0,0-1.173.566,2.615,2.615,0,0,0-.439,1.573v.438a2.675,2.675,0,0,0,.431,1.615,1.513,1.513,0,0,0,2.368.032,2.657,2.657,0,0,0,.429-1.589Z" transform="translate(-51.541 -16.96)" fill="#fff" stroke="#fff" stroke-width="0.2"/>
    <path id="Path_150582" data-name="Path 150582" d="M90.067,23h-.79l-3-4.591V23h-.79V17.042h.79l3.007,4.612V17.042h.782Z" transform="translate(-51.541 -16.96)" fill="#fff" stroke="#fff" stroke-width="0.2"/>
  </g>
  <g id="Group_174449" data-name="Group 174449" transform="translate(41.042 17.047)">
    <path id="Path_150583" data-name="Path 150583" d="M78.136,31.752A4.253,4.253,0,1,0,82.4,36.005,4.192,4.192,0,0,0,78.136,31.752Zm0,6.83a2.584,2.584,0,1,1,2.4-2.577A2.46,2.46,0,0,1,78.136,38.582Zm-9.313-6.83a4.253,4.253,0,1,0,4.269,4.253A4.192,4.192,0,0,0,68.823,31.752Zm0,6.83a2.584,2.584,0,1,1,2.4-2.577A2.46,2.46,0,0,1,68.823,38.582ZM57.744,33.057v1.8h4.317a3.765,3.765,0,0,1-.982,2.271,4.419,4.419,0,0,1-3.335,1.322,4.8,4.8,0,0,1,0-9.6A4.6,4.6,0,0,1,61,30.141l1.273-1.273a6.3,6.3,0,0,0-4.527-1.821,6.606,6.606,0,1,0,0,13.211A6.04,6.04,0,0,0,62.351,38.4a5.962,5.962,0,0,0,1.563-4.221,5.829,5.829,0,0,0-.1-1.127Zm45.308,1.4a3.953,3.953,0,0,0-3.641-2.706A4.041,4.041,0,0,0,95.4,36.005a4.162,4.162,0,0,0,4.22,4.253,4.23,4.23,0,0,0,3.545-1.885l-1.45-.967a2.429,2.429,0,0,1-2.095,1.176,2.164,2.164,0,0,1-2.062-1.288l5.687-2.353Zm-5.8,1.418A2.333,2.333,0,0,1,99.475,33.4a1.645,1.645,0,0,1,1.579.9ZM92.629,40H94.5V27.5H92.629Zm-3.061-7.3H89.5a2.948,2.948,0,0,0-2.239-.95,4.257,4.257,0,0,0,0,8.506,2.9,2.9,0,0,0,2.239-.967h.065V39.9c0,1.628-.87,2.5-2.272,2.5a2.354,2.354,0,0,1-2.143-1.515l-1.627.677a4.053,4.053,0,0,0,3.77,2.513c2.191,0,4.044-1.289,4.044-4.43V32.009H89.568Zm-2.143,5.88a2.587,2.587,0,0,1,0-5.155A2.4,2.4,0,0,1,89.7,36.021,2.376,2.376,0,0,1,87.425,38.582ZM111.806,27.5h-4.471V40H109.2V35.264h2.606a3.888,3.888,0,1,0,0-7.765Zm.048,6.025H109.2V29.239h2.654a2.143,2.143,0,1,1,0,4.285Zm11.532-1.795a3.5,3.5,0,0,0-3.329,1.913l1.656.692a1.768,1.768,0,0,1,1.705-.917,1.8,1.8,0,0,1,1.962,1.609v.128a4.127,4.127,0,0,0-1.946-.482c-1.785,0-3.6.981-3.6,2.814a2.889,2.889,0,0,0,3.1,2.751,2.633,2.633,0,0,0,2.381-1.223h.064v.965h1.8V35.186C127.181,32.967,125.525,31.729,123.386,31.729Zm-.225,6.851c-.612,0-1.464-.306-1.464-1.061,0-.965,1.062-1.335,1.978-1.335a3.326,3.326,0,0,1,1.7.418A2.262,2.262,0,0,1,123.161,38.58ZM133.743,32l-2.139,5.42h-.064L129.32,32h-2.01l3.329,7.575-1.9,4.214h1.947L135.818,32Zm-16.807,8H118.8V27.5h-1.866Z" transform="translate(-51.042 -27.047)" fill="#fff"/>
  </g>
  <g id="Group_174454" data-name="Group 174454" transform="translate(9.973 7.141)">
    <g id="Group_174450" data-name="Group 174450" transform="translate(0.098 12.283)">
      <path id="Path_150584" data-name="Path 150584" d="M30.717,29.424l-10.646,11.3v.007a2.879,2.879,0,0,0,4.237,1.734l.034-.02,11.983-6.914Z" transform="translate(-20.071 -29.424)" fill="#ea4335"/>
    </g>
    <g id="Group_174451" data-name="Group 174451" transform="translate(10.503 7.352)">
      <path id="Path_150585" data-name="Path 150585" d="M41.488,27.5l-.01-.007-5.174-3-5.828,5.188,5.849,5.848,5.146-2.969a2.878,2.878,0,0,0,.017-5.06Z" transform="translate(-30.476 -24.493)" fill="#fbbc04"/>
    </g>
    <g id="Group_174452" data-name="Group 174452" transform="translate(0 2.136)">
      <path id="Path_150586" data-name="Path 150586" d="M20.07,19.277a2.823,2.823,0,0,0-.1.74V39.985a2.769,2.769,0,0,0,.1.739L31.083,29.713Z" transform="translate(-19.973 -19.277)" fill="#4285f4"/>
    </g>
    <g id="Group_174453" data-name="Group 174453" transform="translate(0.097)">
      <path id="Path_150587" data-name="Path 150587" d="M30.8,30l5.51-5.509-11.97-6.94a2.881,2.881,0,0,0-4.265,1.722v0Z" transform="translate(-20.07 -17.141)" fill="#34a853"/>
    </g>
  </g>
</svg>
