<svg id="Download_on_the_App_Store_Badge_US-UK_RGB_blk_092917" xmlns="http://www.w3.org/2000/svg" width="119.633" height="39.99" viewBox="0 0 119.633 39.99">
  <g id="Group_174458" data-name="Group 174458">
    <g id="Group_174456" data-name="Group 174456">
      <path id="Path_150588" data-name="Path 150588" d="M110.106,0H9.532C9.166,0,8.8,0,8.438,0c-.306,0-.61.008-.919.013a13.211,13.211,0,0,0-2,.177,6.663,6.663,0,0,0-1.9.627A6.436,6.436,0,0,0,2,2,6.257,6.257,0,0,0,.819,3.617a6.6,6.6,0,0,0-.625,1.9,12.989,12.989,0,0,0-.179,2C.006,7.828,0,8.136,0,8.442V31.55c0,.31.006.611.015.922a12.989,12.989,0,0,0,.179,2,6.586,6.586,0,0,0,.625,1.9A6.206,6.206,0,0,0,2,37.991a6.273,6.273,0,0,0,1.618,1.178,6.7,6.7,0,0,0,1.9.631,13.451,13.451,0,0,0,2,.177c.309.007.613.011.919.011.366,0,.728,0,1.094,0H110.106c.359,0,.724,0,1.084,0,.3,0,.617,0,.922-.011a13.276,13.276,0,0,0,2-.177,6.8,6.8,0,0,0,1.908-.631,6.276,6.276,0,0,0,1.617-1.178,6.393,6.393,0,0,0,1.181-1.614,6.6,6.6,0,0,0,.619-1.9,13.5,13.5,0,0,0,.186-2c0-.311,0-.611,0-.922.008-.363.008-.724.008-1.094V9.534c0-.366,0-.729-.008-1.092,0-.307,0-.614,0-.921a13.5,13.5,0,0,0-.186-2,6.616,6.616,0,0,0-.619-1.9,6.464,6.464,0,0,0-2.8-2.8,6.766,6.766,0,0,0-1.908-.627,13.04,13.04,0,0,0-2-.177c-.3,0-.617-.011-.922-.013-.359,0-.724,0-1.084,0Z" transform="translate(0 0)" fill="#a6a6a6"/>
      <path id="Path_150589" data-name="Path 150589" d="M8.443,39.115c-.3,0-.6,0-.9-.011a12.684,12.684,0,0,1-1.869-.163,5.882,5.882,0,0,1-1.656-.548,5.4,5.4,0,0,1-1.4-1.016,5.319,5.319,0,0,1-1.02-1.4,5.72,5.72,0,0,1-.543-1.657A12.41,12.41,0,0,1,.888,32.45c-.006-.211-.015-.913-.015-.913V8.442s.009-.691.015-.894a12.367,12.367,0,0,1,.165-1.872A5.754,5.754,0,0,1,1.6,4.015a5.372,5.372,0,0,1,1.015-1.4A5.564,5.564,0,0,1,4.013,1.6a5.822,5.822,0,0,1,1.653-.544A12.583,12.583,0,0,1,7.541.887l.9-.012H111.185l.913.013a12.382,12.382,0,0,1,1.858.163,5.937,5.937,0,0,1,1.67.548,5.592,5.592,0,0,1,2.414,2.419,5.761,5.761,0,0,1,.535,1.648,12.994,12.994,0,0,1,.174,1.887c0,.283,0,.587,0,.89.008.375.008.732.008,1.092V30.457c0,.363,0,.718-.008,1.075,0,.325,0,.623,0,.929a12.726,12.726,0,0,1-.171,1.853,5.737,5.737,0,0,1-.54,1.67,5.479,5.479,0,0,1-1.015,1.385,5.411,5.411,0,0,1-1.4,1.022,5.86,5.86,0,0,1-1.668.55,12.539,12.539,0,0,1-1.869.163c-.293.007-.6.011-.9.011l-1.084,0Z" transform="translate(0 0)"/>
    </g>
    <g id="_Group_" data-name="&lt;Group&gt;" transform="translate(9.969 8.718)">
      <g id="_Group_2" data-name="&lt;Group&gt;">
        <g id="_Group_3" data-name="&lt;Group&gt;">
          <path id="_Path_" data-name="&lt;Path&gt;" d="M24.765,20.3a4.948,4.948,0,0,1,2.356-4.151,5.064,5.064,0,0,0-3.99-2.157c-1.679-.176-3.306,1-4.162,1-.872,0-2.189-.987-3.608-.958a5.314,5.314,0,0,0-4.472,2.727c-1.933,3.348-.491,8.267,1.361,10.973.927,1.325,2.01,2.805,3.427,2.753,1.387-.058,1.9-.884,3.578-.884,1.658,0,2.144.884,3.59.851,1.488-.024,2.425-1.331,3.32-2.668A10.959,10.959,0,0,0,27.684,24.7,4.781,4.781,0,0,1,24.765,20.3Z" transform="translate(-9.972 -8.722)" fill="#fff"/>
          <path id="_Path_2" data-name="&lt;Path&gt;" d="M22.036,12.21a4.871,4.871,0,0,0,1.114-3.49,4.956,4.956,0,0,0-3.207,1.659A4.635,4.635,0,0,0,18.8,13.74,4.1,4.1,0,0,0,22.036,12.21Z" transform="translate(-9.974 -8.72)" fill="#fff"/>
        </g>
      </g>
      <g id="Group_174457" data-name="Group 174457" transform="translate(24.449 9.148)">
        <path id="Path_150590" data-name="Path 150590" d="M42.3,27.137H37.568l-1.136,3.356h-2L38.91,18.078h2.082l4.482,12.415H43.436Zm-4.242-1.548h3.751L39.96,20.143h-.052Z" transform="translate(-34.427 -17.871)" fill="#fff"/>
        <path id="Path_150591" data-name="Path 150591" d="M55.157,25.969c0,2.813-1.505,4.62-3.777,4.62A3.069,3.069,0,0,1,48.532,29h-.043v4.483H46.631V21.442h1.8v1.505h.034a3.211,3.211,0,0,1,2.882-1.6C53.643,21.348,55.157,23.164,55.157,25.969Zm-1.91,0c0-1.833-.947-3.037-2.392-3.037-1.42,0-2.374,1.23-2.374,3.037,0,1.824.955,3.045,2.374,3.045C52.3,29.014,53.248,27.818,53.248,25.969Z" transform="translate(-34.43 -17.872)" fill="#fff"/>
        <path id="Path_150592" data-name="Path 150592" d="M65.122,25.969c0,2.813-1.505,4.62-3.777,4.62A3.068,3.068,0,0,1,58.5,29h-.043v4.483H56.6V21.442h1.8v1.505h.034a3.211,3.211,0,0,1,2.882-1.6C63.608,21.348,65.122,23.164,65.122,25.969Zm-1.91,0c0-1.833-.947-3.037-2.392-3.037-1.42,0-2.374,1.23-2.374,3.037,0,1.824.955,3.045,2.374,3.045,1.445,0,2.392-1.2,2.392-3.045Z" transform="translate(-34.433 -17.872)" fill="#fff"/>
        <path id="Path_150593" data-name="Path 150593" d="M71.71,27.034c.138,1.231,1.334,2.039,2.968,2.039,1.566,0,2.693-.808,2.693-1.918,0-.964-.68-1.541-2.288-1.936l-1.609-.388c-2.28-.551-3.338-1.617-3.338-3.347,0-2.142,1.867-3.613,4.517-3.613,2.623,0,4.422,1.471,4.482,3.613H77.259c-.112-1.239-1.136-1.987-2.633-1.987s-2.521.757-2.521,1.858c0,.878.654,1.394,2.254,1.79l1.368.336c2.547.6,3.606,1.626,3.606,3.441,0,2.323-1.85,3.777-4.793,3.777-2.753,0-4.612-1.421-4.732-3.666Z" transform="translate(-34.436 -17.871)" fill="#fff"/>
        <path id="Path_150594" data-name="Path 150594" d="M83.345,19.3v2.142h1.721v1.471H83.345V27.9c0,.775.345,1.136,1.1,1.136A5.806,5.806,0,0,0,85.058,29v1.463a5.1,5.1,0,0,1-1.032.086c-1.833,0-2.547-.688-2.547-2.444V22.913H80.163V21.442h1.316V19.3Z" transform="translate(-34.439 -17.871)" fill="#fff"/>
        <path id="Path_150595" data-name="Path 150595" d="M86.065,25.969c0-2.848,1.677-4.637,4.293-4.637s4.294,1.79,4.294,4.637-1.661,4.637-4.294,4.637S86.065,28.824,86.065,25.969Zm6.694,0c0-1.954-.9-3.107-2.4-3.107s-2.4,1.162-2.4,3.107c0,1.961.894,3.106,2.4,3.106s2.4-1.144,2.4-3.106Z" transform="translate(-34.441 -17.872)" fill="#fff"/>
        <path id="Path_150596" data-name="Path 150596" d="M96.186,21.442h1.772v1.541H98a2.159,2.159,0,0,1,2.177-1.635,2.865,2.865,0,0,1,.637.069v1.738a2.6,2.6,0,0,0-.835-.112,1.872,1.872,0,0,0-1.936,2.082v5.369H96.186Z" transform="translate(-34.443 -17.872)" fill="#fff"/>
        <path id="Path_150597" data-name="Path 150597" d="M109.382,27.835c-.25,1.643-1.85,2.771-3.9,2.771-2.633,0-4.267-1.764-4.267-4.595s1.643-4.68,4.189-4.68c2.5,0,4.079,1.72,4.079,4.465v.637h-6.393v.112a2.357,2.357,0,0,0,2.435,2.564,2.048,2.048,0,0,0,2.09-1.273Zm-6.281-2.7h4.525a2.177,2.177,0,0,0-2.22-2.3,2.291,2.291,0,0,0-2.305,2.3Z" transform="translate(-34.445 -17.872)" fill="#fff"/>
      </g>
    </g>
  </g>
  <g id="_Group_4" data-name="&lt;Group&gt;" transform="translate(35.662 8.435)">
    <g id="Group_174459" data-name="Group 174459">
      <path id="Path_150598" data-name="Path 150598" d="M37.826,8.731A2.639,2.639,0,0,1,40.633,11.7c0,1.906-1.03,3-2.807,3H35.671V8.731ZM36.6,13.853h1.125a1.875,1.875,0,0,0,1.967-2.145,1.881,1.881,0,0,0-1.967-2.133H36.6Z" transform="translate(-35.671 -8.437)" fill="#fff"/>
      <path id="Path_150599" data-name="Path 150599" d="M41.681,12.444a2.133,2.133,0,1,1,4.246,0,2.133,2.133,0,1,1-4.246,0Zm3.332,0c0-.976-.438-1.546-1.208-1.546s-1.207.571-1.207,1.546.434,1.55,1.207,1.55,1.208-.57,1.208-1.55Z" transform="translate(-35.672 -8.437)" fill="#fff"/>
      <path id="Path_150600" data-name="Path 150600" d="M51.572,14.7H50.65l-.93-3.316h-.07L48.723,14.7H47.81l-1.241-4.5h.9l.806,3.435h.066l.926-3.435h.852l.926,3.435h.07l.8-3.435h.888Z" transform="translate(-35.674 -8.437)" fill="#fff"/>
      <path id="Path_150601" data-name="Path 150601" d="M53.854,10.195h.855v.715h.066a1.348,1.348,0,0,1,1.343-.8,1.464,1.464,0,0,1,1.558,1.674V14.7h-.888V12.005c0-.723-.314-1.083-.971-1.083a1.033,1.033,0,0,0-1.075,1.141V14.7h-.888Z" transform="translate(-35.676 -8.437)" fill="#fff"/>
      <path id="Path_150602" data-name="Path 150602" d="M59.094,8.437h.888V14.7h-.888Z" transform="translate(-35.677 -8.437)" fill="#fff"/>
      <path id="Path_150603" data-name="Path 150603" d="M61.218,12.444a2.133,2.133,0,1,1,4.246,0,2.133,2.133,0,1,1-4.246,0Zm3.332,0c0-.976-.438-1.546-1.208-1.546s-1.207.571-1.207,1.546.434,1.55,1.207,1.55,1.208-.57,1.208-1.55Z" transform="translate(-35.678 -8.437)" fill="#fff"/>
      <path id="Path_150604" data-name="Path 150604" d="M66.4,13.423c0-.81.6-1.277,1.674-1.344l1.219-.07v-.389c0-.475-.314-.744-.922-.744-.5,0-.84.182-.938.5h-.86c.091-.773.818-1.269,1.839-1.269,1.129,0,1.765.562,1.765,1.513V14.7h-.855v-.633h-.07a1.515,1.515,0,0,1-1.352.707,1.36,1.36,0,0,1-1.5-1.347Zm2.894-.385v-.376l-1.1.07c-.62.041-.9.252-.9.649s.351.641.835.641a1.061,1.061,0,0,0,1.166-.984Z" transform="translate(-35.679 -8.437)" fill="#fff"/>
      <path id="Path_150605" data-name="Path 150605" d="M71.348,12.443c0-1.422.731-2.324,1.869-2.324a1.484,1.484,0,0,1,1.381.79h.066V8.437h.888V14.7H74.7v-.711h-.07a1.562,1.562,0,0,1-1.414.785C72.072,14.77,71.348,13.869,71.348,12.443Zm.918,0c0,.955.45,1.529,1.2,1.529s1.212-.583,1.212-1.525-.468-1.529-1.212-1.529-1.2.578-1.2,1.525Z" transform="translate(-35.68 -8.437)" fill="#fff"/>
      <path id="Path_150606" data-name="Path 150606" d="M79.23,12.444a2.133,2.133,0,1,1,4.246,0,2.133,2.133,0,1,1-4.246,0Zm3.332,0c0-.976-.438-1.546-1.208-1.546s-1.207.571-1.207,1.546.434,1.55,1.207,1.55S82.562,13.423,82.562,12.444Z" transform="translate(-35.682 -8.437)" fill="#fff"/>
      <path id="Path_150607" data-name="Path 150607" d="M84.669,10.195h.855v.715h.066a1.348,1.348,0,0,1,1.343-.8,1.464,1.464,0,0,1,1.558,1.674V14.7H87.6V12.005c0-.723-.314-1.083-.971-1.083a1.033,1.033,0,0,0-1.075,1.141V14.7h-.888Z" transform="translate(-35.684 -8.437)" fill="#fff"/>
      <path id="Path_150608" data-name="Path 150608" d="M93.515,9.074v1.141h.975v.748h-.975v2.315c0,.472.194.678.637.678a2.966,2.966,0,0,0,.339-.021v.74a2.915,2.915,0,0,1-.483.045c-.988,0-1.381-.348-1.381-1.216V10.963h-.715v-.748h.715V9.074Z" transform="translate(-35.686 -8.437)" fill="#fff"/>
      <path id="Path_150609" data-name="Path 150609" d="M95.7,8.437h.881v2.481h.07a1.385,1.385,0,0,1,1.373-.806,1.483,1.483,0,0,1,1.55,1.678V14.7h-.889V12.009c0-.719-.335-1.083-.963-1.083a1.052,1.052,0,0,0-1.133,1.141V14.7H95.7Z" transform="translate(-35.687 -8.437)" fill="#fff"/>
      <path id="Path_150610" data-name="Path 150610" d="M104.76,13.481a1.828,1.828,0,0,1-1.951,1.3,2.045,2.045,0,0,1-2.08-2.324,2.076,2.076,0,0,1,2.076-2.352c1.253,0,2.008.856,2.008,2.269v.31h-3.179v.05a1.19,1.19,0,0,0,1.2,1.29,1.079,1.079,0,0,0,1.071-.546Zm-3.125-1.451h2.274a1.086,1.086,0,0,0-1.108-1.166,1.151,1.151,0,0,0-1.166,1.166Z" transform="translate(-35.688 -8.437)" fill="#fff"/>
    </g>
  </g>
</svg>
