<svg id="Component_313_36" data-name="Component 313 – 36" xmlns="http://www.w3.org/2000/svg" width="18.995" height="19" viewBox="0 0 18.995 19">
  <g id="instagram" transform="translate(-2.003 -2.025)">
    <path id="Subtraction_53" data-name="Subtraction 53" d="M14,19H5a5.006,5.006,0,0,1-5-5V5A5.006,5.006,0,0,1,5,0H14a5.006,5.006,0,0,1,5,5v9A5.006,5.006,0,0,1,14,19ZM9.54,4.71a4.75,4.75,0,0,0,0,9.5,4.844,4.844,0,0,0,2.138-.5,4.744,4.744,0,0,0,2.559-4.944,4.739,4.739,0,0,0-4-4A4.142,4.142,0,0,0,9.54,4.71Zm5.186-1.385a.95.95,0,1,0,0,1.9h.005a.95.95,0,0,0,0-1.9ZM9.54,12.311a2.855,2.855,0,1,1,1.283-.306A2.84,2.84,0,0,1,9.54,12.311Z" transform="translate(2 2.025)" fill="#fff"/>
  </g>
</svg>
