<svg id="Icon_awesome-youtube" data-name="Icon awesome-youtube" xmlns="http://www.w3.org/2000/svg" width="24.083" height="16.469" viewBox="0 0 24.083 16.469">
  <path id="Icon_awesome-youtube-2" data-name="Icon awesome-youtube" d="M24.629,7.077A2.985,2.985,0,0,0,22.5,4.993C20.622,4.5,13.091,4.5,13.091,4.5s-7.531,0-9.409.493A2.985,2.985,0,0,0,1.553,7.077a30.047,30.047,0,0,0-.5,5.674,30.047,30.047,0,0,0,.5,5.674,2.942,2.942,0,0,0,2.129,2.051c1.878.493,9.409.493,9.409.493s7.531,0,9.409-.493a2.942,2.942,0,0,0,2.129-2.051,30.047,30.047,0,0,0,.5-5.674,30.047,30.047,0,0,0-.5-5.674Zm-14,9.157V9.269l6.294,3.483-6.294,3.483Z" transform="translate(-1.05 -4.5)" fill="#fff"/>
</svg>
